<svg width="1008" height="858" viewBox="0 0 1008 858" fill="none" xmlns="http://www.w3.org/2000/svg">
<style>
#leaves *{
    animation: opacity 1s infinite ease;
    animation-direction: alternate;
}
@keyframes opacity{
    0%{
        opacity: 0.2;
    }
    100%{
        opacity: 0.5;
    }
}
</style>
<g id="bookread 1" clip-path="url(#clip0)">
<g id="Group" opacity="0.1">
<path id="Vector" opacity="0.1" d="M597.25 16.32C587.92 23.98 583.75 36.12 580.11 47.63C571.95 73.4567 564.32 99.4567 557.22 125.63C546.87 163.65 537.47 202.51 518.52 237.1C499.57 271.69 471.96 300.36 444.65 328.69L346.27 430.69C315.87 462.22 283.44 498.61 284.02 542.41C284.52 580.41 311.08 614.12 343.58 633.74C376.08 653.36 414.06 661.39 451.23 669.11C470.1 673.03 490.13 676.88 508.23 670.36C529.97 662.54 544.14 641.59 564.01 629.8C599.66 608.63 644.83 620.54 684.77 631.64C724.71 642.74 771.77 651.16 804.16 625.3C851.16 587.77 830.9 512.16 851.89 455.8C871.81 402.31 926.89 371.55 963.04 327.39C1043.8 228.76 1008.49 91.76 897.04 36.46C860.52 18.39 824.52 19.32 784.91 16.47C735.52 12.93 639.82 -18.65 597.25 16.32Z" fill="#6C63FF"/>
</g>
<g id="Group_2" opacity="0.5">
<path id="Vector_2" opacity="0.5" d="M13.32 65C13.32 65 83.02 185.77 118.19 342.87C153.36 499.97 210.62 629.61 292.08 583.87" stroke="white" stroke-miterlimit="10"/>
</g>
<g id="Group_3" opacity="0.5">
<g id="leaves">
<path id="Vector_3" opacity="0.5" d="M292.93 586.83C292.93 586.83 127.73 503.23 198.33 316.5C268.93 129.77 13.32 65 13.32 65C13.32 65 -36.75 246.82 57.32 367.9C151.39 488.98 187.68 690 292.93 586.83Z" fill="#6C63FF"/>
<path id="Vector_4" opacity="0.5" d="M257.44 617.37C257.44 617.37 191.38 522.54 279.02 431.13C366.66 339.72 247.19 231.31 247.19 231.31C247.19 231.31 171.84 325.43 189.83 423C207.82 520.57 173.59 649.7 257.44 617.37Z" fill="#6C63FF"/>
</g>
<path id="Vector_5" opacity="0.5" d="M247.2 231.31C247.2 231.31 252.2 322.03 229.1 424.83C206 527.63 201.97 620.21 257.77 615.4" stroke="white" stroke-miterlimit="10"/>
</g>
<g id="Group_4" opacity="0.1">
<path id="Vector_6" opacity="0.1" d="M62.71 766.86C63.87 773.99 68 779.42 71.92 784.4L118.57 843.54C122.32 848.3 126.35 853.25 131.39 854.54C141.92 857.33 150.39 843.81 159.39 835.9C191.39 807.78 235.12 850.59 271.29 834.22C285.76 827.67 297.48 812.11 312.23 806.84C351.28 792.84 384.37 854.69 424.69 857.84C437.93 858.84 450.92 853.4 463.57 847.99L547.95 811.87C553.81 809.36 559.77 806.87 565.95 806.72C576.33 806.54 586 813.22 595.77 818.03C635.1 837.41 678.77 826.95 719.17 812.27C759.57 797.59 800.26 778.7 842.02 781.83C852.89 782.65 867.25 781.96 870.22 767.7C871.99 759.22 848.1 768.11 842.57 763.54C837.04 758.97 850.2 739.9 843.75 739.09C806.22 734.39 767.98 734.26 731.3 746.09C712.3 752.21 693.61 761.53 674.1 763.44C653.76 765.44 633.53 759.28 613.56 753.68C562.99 739.5 511.56 728.68 459.93 730.88C368.17 734.88 277.79 780.14 186.49 767.02C159.364 763.008 133.161 754.233 109.09 741.1C96.77 734.45 97.32 758 84.75 765.93C80.66 768.51 69.95 744.45 66.75 749.08C64.9271 751.626 63.6307 754.509 62.937 757.563C62.2432 760.616 62.1661 763.777 62.71 766.86V766.86Z" fill="#6C63FF"/>
</g>
<path id="Vector_7" d="M849.64 652.83L703.79 461.83C692.4 408.21 675.3 408.21 675.3 408.21C559.08 392.57 527.18 372.46 527.18 372.46L501.18 362.28L499.01 361C498.91 360.43 498.8 359.86 498.7 359.27C498.6 358.68 498.5 357.9 498.42 357.21C526.816 340.141 547.307 312.532 555.42 280.41C555.63 279.57 555.82 278.71 556.02 277.86C561.601 275.185 566.312 270.987 569.61 265.75C580.78 247.44 570.17 224.26 570.41 202.93C570.56 189.45 575.21 176.24 574.68 162.77C574.24 151.49 570.2 140.66 565.79 130.24C563.65 125.17 561.29 119.99 557.19 116.24C546.32 106.37 528.72 110.6 514.76 105.74C496.7 99.45 488.29 79.85 477.85 64.09C473.85 58.01 466.57 51.59 460 54.92C452.29 58.82 454.38 72.17 446.59 75.92C441.87 78.19 436.1 75.33 432.73 71.37C429.36 67.41 427.43 62.44 424.11 58.44C421.134 54.979 417.277 52.3863 412.949 50.9359C408.621 49.4855 403.981 49.2312 399.52 50.2C397.751 50.4863 396.117 51.3226 394.85 52.59C392.36 55.49 393.92 59.81 394.09 63.59C394.68 76.32 379.09 83.39 366.21 84.74C353.33 86.09 338.15 86.25 330.44 96.5C326.36 101.93 325.49 109 322.74 115.18C316.36 129.51 300.93 137.36 287.37 145.59C273.81 153.82 259.85 165.82 259.97 181.46C260.09 196.46 273.33 208.61 275.66 223.46C276.9 231.33 274.97 239.46 276.51 247.29C279.34 261.65 292.76 271.29 305.14 279.44C305.98 279.99 306.83 280.54 307.7 281.06C307.92 281.94 308.14 282.81 308.38 283.68C313.134 300.424 321.308 316 332.385 329.425C343.463 342.851 357.204 353.833 372.74 361.68C372.94 362.52 373.13 363.37 373.32 364.24C373.91 366.92 374.46 369.71 374.95 372.57L374.57 372.67V372.39L230.52 409.12C229.653 408.808 228.727 408.692 227.81 408.78C221.91 408.3 203.46 414.66 181.93 500.91L89.65 664C89.65 664 36.1 715.39 77.12 759C98.03 781.21 121.61 786.58 139.7 786.51C150.205 786.659 160.65 784.89 170.52 781.29C170.52 781.29 169.78 780.15 168.64 778.13L180.84 779.62C204.84 806.3 245.72 796.93 245.72 796.93C245.72 796.93 303.87 796.27 306.01 765.86L410.52 797.92L410.94 803.63H465.82L465.73 799.99L581.19 765.21C590.19 781.85 612.19 790.08 612.19 790.08C612.19 790.08 679.95 792.93 701.25 780.59C710.2 775.338 719.949 771.585 730.11 769.48L730.7 769.42L730.56 769.56L861.02 755.56C920.28 704.21 849.64 652.83 849.64 652.83ZM192.97 698.25L190.1 696.59C195.228 694.631 200.501 693.073 205.87 691.93L231.25 660.6L235.64 691.5C221.079 688.142 205.783 690.561 192.97 698.25V698.25ZM683.84 698C674.391 690.862 662.831 687.079 650.99 687.25L651.99 611.19C661.52 617.28 669.52 624 671.89 630.48C678.73 649.48 711.77 679.63 711.77 679.63L694.61 693.73L691.94 695.92C691.22 696.09 690.5 696.26 689.78 696.45L683.84 698Z" fill="url(#paint0_linear)"/>
<path id="Vector_8" d="M166.28 782L192.91 785.33L208.44 708.77L178.48 691.01L139.65 733.18L166.28 782Z" fill="#EFB7B9"/>
<path id="Vector_9" opacity="0.03" d="M166.28 782L192.91 785.33L208.44 708.77L178.48 691.01L139.65 733.18L166.28 782Z" fill="black"/>
<path id="Vector_10" d="M523.52 405.86L459.17 463.56C459.17 463.56 334.9 491.3 365.97 452.46C383.57 430.46 381.23 397.07 375.89 372.25C373.501 360.995 370.183 349.957 365.97 339.25C365.97 339.25 525.77 242.76 503.58 316C497 337.72 496.08 354.47 498.03 367.27C502.69 397.63 523.52 405.86 523.52 405.86Z" fill="#EFB7B9"/>
<path id="Vector_11" opacity="0.1" d="M503.58 316C497 337.72 496.08 354.47 498.03 367.27C479.825 378.542 459.02 384.924 437.626 385.8C416.233 386.676 394.975 382.016 375.91 372.27C373.521 361.015 370.203 349.977 365.99 339.27C365.99 339.27 525.77 242.76 503.58 316Z" fill="black"/>
<path id="Vector_12" d="M556.84 259.4C556.84 283.976 549.553 308.001 535.9 328.436C522.247 348.871 502.842 364.799 480.138 374.206C457.433 383.613 432.449 386.077 408.344 381.286C384.24 376.495 362.097 364.664 344.715 347.29C327.334 329.915 315.495 307.777 310.694 283.675C305.893 259.572 308.347 234.587 317.745 211.879C327.143 189.17 343.063 169.759 363.493 156.098C383.922 142.437 407.944 135.14 432.52 135.13C448.857 135.076 465.043 138.253 480.148 144.478C495.252 150.704 508.976 159.854 520.53 171.404C532.085 182.954 541.241 196.674 547.473 211.776C553.704 226.878 556.888 243.063 556.84 259.4V259.4Z" fill="#EFB7B9"/>
<path id="Vector_13" d="M347.13 420.29V647.74L565.71 629.99L529.1 398.1L432.57 455.79L347.13 420.29Z" fill="#E1E7EF"/>
<path id="Vector_14" opacity="0.1" d="M465.85 560.09L441.52 491.3H442.52C468.04 463.56 456.94 446.92 456.94 446.92H421.52C398.97 462.92 414.62 483.65 419.93 489.62L409.31 560.09H465.85Z" fill="black"/>
<path id="Vector_15" d="M465.85 557.87L441.52 489.08H442.52C468.04 461.34 456.94 444.7 456.94 444.7H421.52C398.97 460.7 414.62 481.43 419.93 487.4L409.31 557.87H465.85Z" fill="#444053"/>
<path id="Vector_16" opacity="0.1" d="M498.33 371.2C498.33 371.2 491.33 403.64 442.56 446.91C442.56 446.91 457.56 451.91 459.76 491.85L478.07 516.85C478.07 516.85 492.49 464.7 518.01 446.95C543.53 429.2 518.01 382.6 518.01 382.6L498.33 371.2Z" fill="black"/>
<path id="Vector_17" d="M498.33 369C498.33 369 491.33 401.44 442.56 444.71C442.56 444.71 457.56 449.71 459.76 489.65L478.07 514.65C478.07 514.65 492.49 462.5 518.01 444.75C543.53 427 518.01 380.4 518.01 380.4L498.33 369Z" fill="#E1E7EF"/>
<path id="Vector_18" opacity="0.1" d="M432.52 446.91C432.52 446.91 411.52 463.56 410.38 490.19C409.24 516.82 398.18 516.82 398.18 516.82C398.18 516.82 370.44 431.39 361.57 423.62C352.7 415.85 377.57 383.08 377.57 383.08C377.57 383.08 391.52 429.16 432.52 446.91Z" fill="black"/>
<path id="Vector_19" d="M432.52 444.7C432.52 444.7 411.52 461.34 410.38 488C409.24 514.66 398.18 514.63 398.18 514.63C398.18 514.63 370.43 429.16 361.52 421.4C352.61 413.64 377.52 380.86 377.52 380.86C377.52 380.86 391.52 426.94 432.52 444.7Z" fill="#E1E7EF"/>
<path id="Vector_20" opacity="0.1" d="M496.92 369.25L524.66 380.35C524.66 380.35 555.73 400.35 668.9 415.86C668.9 415.86 685.54 415.86 696.64 469.12L838.64 658.85C838.64 658.85 907.43 709.85 849.74 760.93L722.74 774.8C722.74 774.8 795.97 704.9 685.02 702.68L705.52 685.47C705.52 685.47 673.34 655.47 666.69 636.65C660.04 617.83 605.69 596.71 605.69 596.71L612.35 756.48L512.45 772L498.05 474.7C497.357 460.678 498.161 446.622 500.45 432.77C504.21 410.22 508.18 374.5 496.92 369.25Z" fill="black"/>
<path id="Vector_21" d="M498.03 369.25L525.77 380.35C525.77 380.35 556.84 400.35 670.01 415.86C670.01 415.86 686.65 415.86 697.75 469.12L839.75 658.85C839.75 658.85 908.54 709.85 850.85 760.93L723.85 774.8C723.85 774.8 797.08 704.9 686.13 702.68L706.66 685.48C706.66 685.48 674.48 655.48 667.83 636.66C661.18 617.84 606.83 596.72 606.83 596.72L613.49 756.49L513.52 772L499.12 474.7C498.427 460.678 499.232 446.622 501.52 432.77C505.32 410.22 509.29 374.5 498.03 369.25Z" fill="#67647E"/>
<path id="Vector_22" opacity="0.1" d="M378.2 380.34L237.29 417C237.29 417 216.21 403.69 190.69 508L100.82 670C100.82 670 48.67 721 88.62 764.31C128.57 807.62 178.52 786.43 178.52 786.43C178.52 786.43 133.03 715.43 212.92 697.67L242.92 659.95L378.28 675.48L374.87 480.2L378.66 457.44C382.76 432.84 382.76 407.73 378.66 383.13L378.2 380.34Z" fill="black"/>
<path id="Vector_23" d="M377.09 380.34L236.18 417C236.18 417 215.1 403.69 189.58 508L99.71 670C99.71 670 47.52 721 87.52 764.24C127.52 807.48 177.39 786.43 177.39 786.43C177.39 786.43 131.9 715.43 211.79 697.67L241.79 659.95L377.15 675.48L373.76 480.2L377.52 457.44C381.62 432.84 381.62 407.73 377.52 383.13L377.09 380.34Z" fill="#67647E"/>
<path id="Vector_24" d="M238.4 489.08L225.08 499.06L425.91 550.1V530.13L238.4 489.08Z" fill="#E4E6ED"/>
<path id="Vector_25" d="M626.74 485.75L640.05 495.74L425.91 550.1V530.13L626.74 485.75Z" fill="#E4E6ED"/>
<path id="Vector_26" d="M212.88 489.08L399.28 532.35L412.59 803.08L249.49 752.04L212.88 489.08Z" fill="#6C63FF"/>
<path id="Vector_27" d="M648.93 489.08L450.32 534.57L461.41 806.41L645.6 749.82L648.93 489.08Z" fill="#6C63FF"/>
<path id="Vector_28" d="M392.62 532.35C392.62 532.35 425.16 552.35 459.37 532.35L466.03 808.63H412.6L392.62 532.35Z" fill="#6C63FF"/>
<path id="Vector_29" opacity="0.1" d="M392.62 532.35C392.62 532.35 425.16 552.35 459.37 532.35L466.03 808.63H412.6L392.62 532.35Z" fill="black"/>
<path id="Vector_30" d="M242.84 485.75V493.52L425.91 530.13C425.91 530.13 332.71 495.73 242.84 485.75Z" fill="#D8D9E5"/>
<path id="Vector_31" d="M623.41 481.31V489.08L425.91 530.13C425.91 530.13 533.52 491.3 623.41 481.31Z" fill="#D8D9E5"/>
<path id="Vector_32" d="M684.1 702.18L678.31 703.74C678.31 703.74 640.6 670.74 592.53 720.74C544.46 770.74 608.53 795.21 608.53 795.21C608.53 795.21 674.53 798.04 695.26 785.78C704.182 780.43 713.952 776.646 724.15 774.59C730.385 773.367 736.06 770.165 740.33 765.46V765.46C744.212 761.209 747.094 756.143 748.766 750.634C750.437 745.125 750.856 739.312 749.99 733.62V733.62C748.869 726.149 745.58 719.171 740.532 713.551C735.484 707.93 728.898 703.914 721.59 702V702C709.29 698.803 696.369 698.865 684.1 702.18V702.18Z" fill="#EFB7B9"/>
<path id="Vector_33" d="M195.13 707.66C195.13 707.66 239.51 667.72 293.88 734.29C348.25 800.86 251.71 802 251.71 802C251.71 802 199.52 814.17 179.59 770.9C159.66 727.63 195.13 707.66 195.13 707.66Z" fill="#EFB7B9"/>
<path id="Vector_34" opacity="0.1" d="M688.8 699.47C688.8 699.47 740.39 714.53 729.33 774.06L760.51 770.66L767.09 740.39L753.78 698.23L728.26 688.23L688.8 699.47Z" fill="black"/>
<path id="Vector_35" d="M689.91 699.47C689.91 699.47 741.5 714.53 730.44 774.06L761.62 770.66L768.2 740.39L754.89 698.23L729.37 688.23L689.91 699.47Z" fill="#67647E"/>
<path id="Vector_36" opacity="0.1" d="M556.84 259.4C556.849 269.346 555.661 279.258 553.3 288.92C545.503 292.625 536.773 293.907 528.24 292.6C513.54 290.35 500.56 281.6 489.81 271.33C479.06 261.06 470.04 249.11 459.67 238.43C450.27 228.75 438.67 219.7 425.19 219.31C412.95 218.95 401.8 225.79 390 229.03C377.64 232.43 352.74 223.15 346.71 233.63C343.17 239.79 344.42 253.34 342.33 260.63C340.057 268.593 336.859 276.262 332.8 283.48C329.8 288.75 325.39 294.34 319.34 294.29C316.98 294.172 314.692 293.441 312.7 292.17C308.022 275.079 307.052 257.186 309.856 239.69C312.66 222.193 319.173 205.499 328.958 190.726C338.743 175.954 351.574 163.444 366.59 154.037C381.607 144.63 398.461 138.543 416.022 136.183C433.584 133.824 451.447 135.247 468.414 140.358C485.38 145.468 501.058 154.148 514.395 165.814C527.732 177.481 538.42 191.864 545.742 208C553.065 224.136 556.852 241.651 556.85 259.37L556.84 259.4Z" fill="black"/>
<path id="Vector_37" d="M389.99 226.83C401.8 223.59 412.99 216.75 425.18 217.11C438.66 217.5 450.27 226.55 459.66 236.23C470.02 246.9 479.04 258.85 489.8 269.13C500.56 279.41 513.53 288.13 528.23 290.4C542.93 292.67 559.48 287.14 567.11 274.4C577.98 256.22 567.66 233.19 567.89 212.01C568.04 198.62 572.56 185.5 572.05 172.12C571.62 160.92 567.69 150.12 563.4 139.81C561.31 134.81 559.02 129.63 555.02 125.92C544.43 116.12 527.3 120.32 513.7 115.49C496.12 109.24 487.92 89.77 477.76 74.12C473.84 68.12 466.76 61.71 460.38 65.01C452.87 68.89 454.91 82.15 447.32 85.87C442.72 88.12 437.1 85.28 433.82 81.35C430.54 77.42 428.65 72.48 425.43 68.51C422.564 65.0765 418.81 62.4966 414.578 61.0523C410.345 59.6079 405.797 59.3546 401.43 60.32C399.7 60.6064 398.106 61.4365 396.88 62.69C394.46 65.57 395.97 69.86 396.14 73.62C396.72 86.26 381.57 93.28 368.99 94.62C356.41 95.96 341.66 96.12 334.16 106.31C330.16 111.7 329.34 118.72 326.66 124.86C320.44 139.1 305.42 146.86 292.21 155.07C279 163.28 265.41 175.17 265.53 190.7C265.65 205.63 278.53 217.7 280.81 232.43C282.01 240.25 280.14 248.33 281.64 256.1C284.39 270.36 297.46 279.93 309.52 288.03C312.52 290.03 315.72 292.12 319.32 292.15C325.32 292.2 329.81 286.61 332.78 281.34C336.838 274.122 340.037 266.453 342.31 258.49C344.4 251.18 343.15 237.63 346.69 231.49C352.73 220.95 377.63 230.22 389.99 226.83Z" fill="#585268"/>
</g>
<defs>
<linearGradient id="paint0_linear" x1="473.18" y1="803.63" x2="473.18" y2="49.6" gradientUnits="userSpaceOnUse">
<stop stop-color="#808080" stop-opacity="0.25"/>
<stop offset="0.54" stop-color="#808080" stop-opacity="0.12"/>
<stop offset="1" stop-color="#808080" stop-opacity="0.1"/>
</linearGradient>
<clipPath id="clip0">
<rect width="1007.04" height="858" fill="white"/>
</clipPath>
</defs>
</svg>
