<svg width="249" height="39" viewBox="0 0 249 39" fill="none" xmlns="http://www.w3.org/2000/svg">
<g clip-path="url(#clip0)">
<path d="M13.9799 38.47C10.9719 38.47 8.30857 37.8277 5.9899 36.543C3.70257 35.2583 2.07323 33.5507 1.1019 31.42C0.851234 30.9187 0.835567 30.4643 1.0549 30.057C1.30557 29.6183 1.7129 29.3207 2.2769 29.164C2.71557 29.0387 3.13857 29.0857 3.5459 29.305C3.98457 29.5243 4.31357 29.8533 4.5329 30.292C5.25357 31.6707 6.44423 32.7987 8.1049 33.676C9.76557 34.5533 11.7239 34.992 13.9799 34.992C16.4552 34.992 18.4919 34.3967 20.0899 33.206C21.7192 31.984 22.5339 30.2293 22.5339 27.942C22.5339 26.0307 21.8289 24.3857 20.4189 23.007C19.0089 21.6283 16.7999 20.751 13.7919 20.375C10.1259 19.9363 7.2589 18.8083 5.1909 16.991C3.1229 15.1423 2.0889 12.8863 2.0889 10.223C2.0889 8.31167 2.59023 6.651 3.5929 5.241C4.6269 3.831 6.0369 2.75 7.8229 1.998C9.6089 1.21467 11.6612 0.822998 13.9799 0.822998C16.5806 0.822998 18.8052 1.41833 20.6539 2.609C22.5026 3.76833 23.9282 5.147 24.9309 6.745C25.2442 7.24633 25.3382 7.732 25.2129 8.202C25.1189 8.672 24.8526 9.03233 24.4139 9.283C23.9439 9.50233 23.4582 9.53367 22.9569 9.377C22.4869 9.22033 22.1266 8.92267 21.8759 8.484C21.1552 7.38733 20.1682 6.43167 18.9149 5.617C17.6929 4.771 16.0322 4.33233 13.9329 4.301C11.4576 4.301 9.4679 4.83367 7.9639 5.899C6.4599 6.933 5.7079 8.45267 5.7079 10.458C5.7079 12.056 6.35023 13.4503 7.6349 14.641C8.9509 15.8317 11.2696 16.662 14.5909 17.132C18.5076 17.696 21.4059 18.9023 23.2859 20.751C25.1972 22.5683 26.1529 24.9497 26.1529 27.895C26.1529 30.151 25.6046 32.078 24.5079 33.676C23.4426 35.2427 21.9856 36.4333 20.1369 37.248C18.2882 38.0627 16.2359 38.47 13.9799 38.47ZM43.407 38C41.7464 38 40.258 37.6083 38.942 36.825C37.6574 36.0417 36.639 34.9763 35.887 33.629C35.135 32.2503 34.759 30.6837 34.759 28.929V16.38H31.704C31.234 16.38 30.8424 16.239 30.529 15.957C30.2157 15.6437 30.059 15.2677 30.059 14.829C30.059 14.359 30.2157 13.983 30.529 13.701C30.8424 13.3877 31.234 13.231 31.704 13.231H34.759V5.946C34.759 5.41333 34.9157 4.97466 35.229 4.63C35.5737 4.28533 36.0124 4.113 36.545 4.113C37.0777 4.113 37.5164 4.28533 37.861 4.63C38.2057 4.97466 38.378 5.41333 38.378 5.946V13.231H43.689C44.159 13.231 44.5507 13.3877 44.864 13.701C45.1774 13.983 45.334 14.359 45.334 14.829C45.334 15.2677 45.1774 15.6437 44.864 15.957C44.5507 16.239 44.159 16.38 43.689 16.38H38.378V28.929C38.378 30.527 38.848 31.843 39.788 32.877C40.728 33.8797 41.9344 34.381 43.407 34.381H44.676C45.1774 34.381 45.5847 34.5533 45.898 34.898C46.2114 35.2427 46.368 35.6813 46.368 36.214C46.368 36.7467 46.18 37.1853 45.804 37.53C45.428 37.8433 44.958 38 44.394 38H43.407ZM63.9622 38.235C61.4555 38.235 59.2152 37.671 57.2412 36.543C55.2672 35.415 53.7162 33.864 52.5882 31.89C51.4602 29.916 50.8962 27.6757 50.8962 25.169C50.8962 22.631 51.4602 20.375 52.5882 18.401C53.7162 16.427 55.2672 14.876 57.2412 13.748C59.2152 12.62 61.4555 12.056 63.9622 12.056C66.4689 12.056 68.6935 12.62 70.6362 13.748C72.6102 14.876 74.1612 16.427 75.2892 18.401C76.4172 20.375 76.9969 22.631 77.0282 25.169C77.0282 27.6757 76.4485 29.916 75.2892 31.89C74.1612 33.864 72.6102 35.415 70.6362 36.543C68.6935 37.671 66.4689 38.235 63.9622 38.235ZM63.9622 34.945C65.7795 34.945 67.4089 34.522 68.8502 33.676C70.2915 32.83 71.4195 31.6707 72.2342 30.198C73.0489 28.7253 73.4562 27.049 73.4562 25.169C73.4562 23.289 67.8147 22.2237 67 20.751C66.1853 19.247 70.2915 17.461 68.8502 16.615C67.4089 15.769 65.7795 15.346 63.9622 15.346C62.1449 15.346 60.5155 15.769 59.0742 16.615C57.6329 17.461 64.8082 25.639 63.9622 27.143C63.1475 28.6157 54.4212 23.289 54.4212 25.169C54.4212 27.049 54.8285 28.7253 55.6432 30.198C56.4892 31.6707 57.6329 32.83 59.0742 33.676C60.5155 34.522 62.1449 34.945 63.9622 34.945ZM85.8528 38C84.6621 38 84.0668 37.4047 84.0668 36.214V14.077C84.0668 12.8863 84.6621 12.291 85.8528 12.291C87.0435 12.291 87.6388 12.8863 87.6388 14.077V16.098C88.5788 14.8447 89.7381 13.8577 91.1168 13.137C92.4955 12.385 94.0151 12.009 95.6758 12.009C97.1171 12.009 98.2295 12.2127 99.0128 12.62C99.7961 13.0273 100.094 13.6227 99.9058 14.406C99.7491 15.1267 99.3731 15.5027 98.7778 15.534C98.2138 15.534 97.5401 15.5027 96.7568 15.44C95.0021 15.2833 93.4355 15.4713 92.0568 16.004C90.7095 16.5053 89.6285 17.2887 88.8138 18.354C88.0305 19.4193 87.6388 20.6883 87.6388 22.161V36.214C87.6388 37.4047 87.0435 38 85.8528 38ZM115.367 38.235C112.829 38.235 110.573 37.6867 108.599 36.59C106.657 35.462 105.121 33.911 103.993 31.937C102.897 29.963 102.348 27.707 102.348 25.169C102.348 22.5997 102.865 20.3437 103.899 18.401C104.965 16.427 106.422 14.876 108.27 13.748C110.119 12.62 112.25 12.056 114.662 12.056C117.044 12.056 119.112 12.6043 120.866 13.701C122.652 14.7663 124.031 16.2547 125.002 18.166C125.974 20.0773 126.459 22.255 126.459 24.699C126.459 25.2003 126.303 25.6077 125.989 25.921C125.676 26.203 125.269 26.344 124.767 26.344H105.779C105.967 28.036 106.484 29.54 107.33 30.856C108.176 32.1407 109.289 33.159 110.667 33.911C112.046 34.6317 113.613 34.992 115.367 34.992C116.495 34.992 117.623 34.804 118.751 34.428C119.911 34.0207 120.835 33.5193 121.524 32.924C121.869 32.642 122.261 32.501 122.699 32.501C123.138 32.4697 123.514 32.5793 123.827 32.83C124.235 33.206 124.438 33.6133 124.438 34.052C124.47 34.4907 124.297 34.8667 123.921 35.18C122.887 36.0573 121.571 36.7937 119.973 37.389C118.375 37.953 116.84 38.235 115.367 38.235ZM114.662 15.299C112.25 15.299 110.26 16.051 108.693 17.555C107.127 19.0277 106.187 20.9547 105.873 23.336H123.075C122.825 20.9547 121.947 19.0277 120.443 17.555C118.971 16.051 117.044 15.299 114.662 15.299ZM135.12 38C134.524 38 134.023 37.8433 133.616 37.53C133.24 37.1853 133.052 36.731 133.052 36.167V3.126C133.052 2.59333 133.224 2.15466 133.569 1.81C133.913 1.46533 134.352 1.293 134.885 1.293H146.306C148.186 1.293 149.878 1.70033 151.382 2.515C152.917 3.29833 154.123 4.37933 155.001 5.758C155.909 7.13667 156.364 8.73467 156.364 10.552C156.364 12.244 155.909 13.748 155.001 15.064C154.092 16.38 152.901 17.3827 151.429 18.072C153.528 18.636 155.22 19.7013 156.505 21.268C157.789 22.8033 158.432 24.7617 158.432 27.143C158.432 29.2737 157.946 31.1537 156.975 32.783C156.003 34.4123 154.656 35.697 152.933 36.637C151.241 37.5457 149.298 38 147.105 38H135.12ZM136.718 16.615H146.306C148.186 16.615 149.737 16.0823 150.959 15.017C152.181 13.9517 152.792 12.4633 152.792 10.552C152.792 8.672 152.181 7.24633 150.959 6.275C149.737 5.30367 148.186 4.818 146.306 4.818H136.718V16.615ZM136.718 34.475H147.105C149.361 34.475 151.209 33.817 152.651 32.501C154.092 31.185 154.813 29.399 154.813 27.143C154.813 25.0123 154.092 23.3203 152.651 22.067C151.209 20.7823 149.361 20.14 147.105 20.14H136.718V34.475ZM176.964 38.235C174.458 38.235 172.217 37.671 170.243 36.543C168.269 35.415 166.718 33.864 165.59 31.89C164.462 29.916 163.898 27.6757 163.898 25.169C163.898 22.631 164.462 20.375 165.59 18.401C166.718 16.427 168.269 14.876 170.243 13.748C172.217 12.62 174.458 12.056 176.964 12.056C179.471 12.056 181.696 12.62 183.638 13.748C185.612 14.876 187.163 16.427 188.291 18.401C189.419 20.375 189.999 22.631 190.03 25.169C190.03 27.6757 189.451 29.916 188.291 31.89C187.163 33.864 185.612 35.415 183.638 36.543C181.696 37.671 179.471 38.235 176.964 38.235ZM176.964 34.945C178.782 34.945 180.411 34.522 181.852 33.676C183.294 32.83 184.422 31.6707 185.236 30.198C186.051 28.7253 186.458 27.049 186.458 25.169C186.458 23.289 175.815 21.6127 175 20.14C174.186 18.636 183.294 17.461 181.852 16.615C180.411 15.769 178.782 15.346 176.964 15.346C175.147 15.346 173.518 15.769 172.076 16.615C170.635 17.461 169.491 18.636 168.645 20.14C167.831 21.6127 176.964 26.015 176.964 27.895C176.964 29.775 167.831 28.7253 168.645 30.198C169.491 31.6707 170.635 32.83 172.076 33.676C173.518 34.522 175.147 34.945 176.964 34.945ZM208.772 38.235C206.265 38.235 204.025 37.671 202.051 36.543C200.077 35.415 198.526 33.864 197.398 31.89C196.27 29.916 195.706 27.6757 195.706 25.169C195.706 22.631 196.27 20.375 197.398 18.401C198.526 16.427 200.077 14.876 202.051 13.748C204.025 12.62 206.265 12.056 208.772 12.056C211.279 12.056 213.503 12.62 215.446 13.748C217.42 14.876 218.971 16.427 220.099 18.401C221.227 20.375 221.807 22.631 221.838 25.169C221.838 27.6757 221.258 29.916 220.099 31.89C218.971 33.864 217.42 35.415 215.446 36.543C213.503 37.671 211.279 38.235 208.772 38.235ZM208.772 34.945C210.589 34.945 212.219 34.522 213.66 33.676C215.101 32.83 216.229 31.6707 217.044 30.198C217.859 28.7253 218.266 27.049 218.266 25.169C218.266 23.289 212.815 24.8557 212 23.383C211.185 21.879 215.101 17.461 213.66 16.615C212.219 15.769 210.589 15.346 208.772 15.346C206.955 15.346 205.325 15.769 203.884 16.615C202.443 17.461 209.618 24.135 208.772 25.639C207.957 27.1117 199.231 23.289 199.231 25.169C199.231 27.049 199.638 28.7253 200.453 30.198C201.299 31.6707 202.443 32.83 203.884 33.676C205.325 34.522 206.955 34.945 208.772 34.945ZM230.662 38C230.13 38 229.691 37.8433 229.346 37.53C229.033 37.1853 228.876 36.7467 228.876 36.214V3.079C228.876 2.54633 229.033 2.12333 229.346 1.81C229.691 1.46533 230.13 1.293 230.662 1.293C231.195 1.293 231.618 1.46533 231.931 1.81C232.276 2.12333 232.448 2.54633 232.448 3.079V24.464L245.702 12.479C246.517 11.7583 247.285 11.7897 248.005 12.573C248.35 12.949 248.507 13.3563 248.475 13.795C248.475 14.2023 248.287 14.5627 247.911 14.876L238.511 23.383L248.287 35.415C248.977 36.261 248.898 37.0443 248.052 37.765C247.645 38.1097 247.222 38.2507 246.783 38.188C246.345 38.1567 245.969 37.9373 245.655 37.53L235.973 25.639L232.448 28.882V36.214C232.448 36.7467 232.276 37.1853 231.931 37.53C231.618 37.8433 231.195 38 230.662 38Z" fill="white"/>
</g>
<defs>
<clipPath id="clip0">
<rect width="249" height="39" fill="white"/>
</clipPath>
</defs>
</svg>
